<svg xmlns="http://www.w3.org/2000/svg" xmlns:xlink="http://www.w3.org/1999/xlink" width="500" zoomAndPan="magnify" viewBox="0 0 375 374.999991" height="500" preserveAspectRatio="xMidYMid meet" version="1.0"><defs><g/><clipPath id="8b4cd28ee2"><path d="M 209 169 L 255 169 L 255 238.371094 L 209 238.371094 Z M 209 169 " clip-rule="nonzero"/></clipPath><clipPath id="082c4dec59"><path d="M 121 115 L 234 115 L 234 238.371094 L 121 238.371094 Z M 121 115 " clip-rule="nonzero"/></clipPath><clipPath id="aaa1c946f1"><path d="M 0.359375 3 L 8 3 L 8 11 L 0.359375 11 Z M 0.359375 3 " clip-rule="nonzero"/></clipPath><clipPath id="9c72a388c1"><rect x="0" width="58" y="0" height="14"/></clipPath></defs><rect x="-37.5" width="450" fill="#ffffff" y="-37.499999" height="449.999989" fill-opacity="1"/><rect x="-37.5" width="450" fill="#0a0a0a" y="-37.499999" height="449.999989" fill-opacity="1"/><g clip-path="url(#8b4cd28ee2)"><path fill="#e7e3dd" d="M 252.496094 221.472656 L 222.71875 169.90625 L 209.589844 192.671875 L 232.773438 232.84375 C 234.871094 236.476562 238.699219 238.542969 242.636719 238.542969 C 244.5625 238.542969 246.519531 238.039062 248.308594 237.007812 C 253.78125 233.847656 255.625 226.921875 252.496094 221.472656 Z M 252.496094 221.472656 " fill-opacity="1" fill-rule="nonzero"/></g><g clip-path="url(#082c4dec59)"><path fill="#e7e3dd" d="M 231.601562 141.578125 L 218.976562 163.453125 L 205.816406 186.21875 L 185.480469 221.445312 C 179.390625 232.003906 168.019531 238.570312 155.839844 238.570312 C 143.464844 238.570312 132.375 232.171875 126.171875 221.445312 C 119.96875 210.746094 119.96875 197.925781 126.171875 187.195312 L 161.761719 125.597656 C 165.449219 119.199219 172.070312 115.375 179.445312 115.375 C 186.820312 115.375 193.441406 119.199219 197.15625 125.597656 L 198.441406 127.832031 L 202.128906 134.203125 L 188.972656 156.96875 L 179.445312 140.488281 L 145.921875 198.566406 C 142.933594 203.734375 144.917969 208.316406 145.921875 210.046875 C 146.929688 211.78125 149.890625 215.804688 155.867188 215.804688 C 159.945312 215.804688 163.773438 213.597656 165.785156 210.046875 L 192.6875 163.453125 L 205.84375 140.683594 L 211.878906 130.207031 C 215.035156 124.761719 221.992188 122.886719 227.441406 126.046875 C 232.886719 129.175781 234.757812 136.128906 231.601562 141.578125 Z M 231.601562 141.578125 " fill-opacity="1" fill-rule="nonzero"/></g><path fill="#e7e3dd" d="M 226.070312 114.535156 C 232.160156 128.253906 252.46875 119.84375 247.105469 105.820312 C 240.988281 92.132812 220.679688 100.539062 226.070312 114.535156 Z M 226.070312 114.535156 " fill-opacity="1" fill-rule="nonzero"/><g transform="matrix(1, 0, 0, 1, 159, 259)"><g clip-path="url(#9c72a388c1)"><g clip-path="url(#aaa1c946f1)"><g fill="#e7e3dd" fill-opacity="1"><g transform="translate(0.829598, 10.422592)"><g><path d="M 4.765625 0 L 4.296875 -1.53125 L 1.9375 -1.53125 L 1.46875 0 L 0 0 L 2.28125 -6.484375 L 3.953125 -6.484375 L 6.234375 0 Z M 3.96875 -2.6875 L 3.5 -4.1875 C 3.46875 -4.289062 3.425781 -4.421875 3.375 -4.578125 C 3.332031 -4.734375 3.285156 -4.890625 3.234375 -5.046875 C 3.191406 -5.210938 3.15625 -5.359375 3.125 -5.484375 C 3.09375 -5.359375 3.050781 -5.207031 3 -5.03125 C 2.945312 -4.851562 2.894531 -4.6875 2.84375 -4.53125 C 2.800781 -4.375 2.769531 -4.257812 2.75 -4.1875 L 2.28125 -2.6875 Z M 3.96875 -2.6875 "/></g></g></g></g><g fill="#e7e3dd" fill-opacity="1"><g transform="translate(6.614567, 10.422592)"><g><path d="M 6.0625 -6.453125 L 6.0625 -2.28125 C 6.0625 -1.832031 5.960938 -1.425781 5.765625 -1.0625 C 5.578125 -0.707031 5.285156 -0.425781 4.890625 -0.21875 C 4.492188 -0.0078125 3.992188 0.09375 3.390625 0.09375 C 2.535156 0.09375 1.882812 -0.125 1.4375 -0.5625 C 0.988281 -1 0.765625 -1.578125 0.765625 -2.296875 L 0.765625 -6.453125 L 2.140625 -6.453125 L 2.140625 -2.5 C 2.140625 -1.96875 2.242188 -1.59375 2.453125 -1.375 C 2.671875 -1.164062 2.992188 -1.0625 3.421875 -1.0625 C 3.722656 -1.0625 3.96875 -1.113281 4.15625 -1.21875 C 4.34375 -1.320312 4.476562 -1.476562 4.5625 -1.6875 C 4.65625 -1.90625 4.703125 -2.179688 4.703125 -2.515625 L 4.703125 -6.453125 Z M 6.0625 -6.453125 "/></g></g></g><g fill="#e7e3dd" fill-opacity="1"><g transform="translate(12.996358, 10.422592)"><g><path d="M 3.296875 0 L 1.9375 0 L 1.9375 -5.3125 L 0.1875 -5.3125 L 0.1875 -6.453125 L 5.0625 -6.453125 L 5.0625 -5.3125 L 3.296875 -5.3125 Z M 3.296875 0 "/></g></g></g><g fill="#e7e3dd" fill-opacity="1"><g transform="translate(17.777785, 10.422592)"><g><path d="M 6.671875 -3.234375 C 6.671875 -2.734375 6.609375 -2.28125 6.484375 -1.875 C 6.359375 -1.46875 6.171875 -1.117188 5.921875 -0.828125 C 5.671875 -0.535156 5.351562 -0.304688 4.96875 -0.140625 C 4.582031 0.015625 4.125 0.09375 3.59375 0.09375 C 3.070312 0.09375 2.617188 0.015625 2.234375 -0.140625 C 1.847656 -0.304688 1.523438 -0.535156 1.265625 -0.828125 C 1.015625 -1.117188 0.828125 -1.46875 0.703125 -1.875 C 0.585938 -2.289062 0.53125 -2.75 0.53125 -3.25 C 0.53125 -3.914062 0.640625 -4.492188 0.859375 -4.984375 C 1.078125 -5.484375 1.410156 -5.867188 1.859375 -6.140625 C 2.316406 -6.421875 2.898438 -6.5625 3.609375 -6.5625 C 4.304688 -6.5625 4.878906 -6.421875 5.328125 -6.140625 C 5.785156 -5.867188 6.125 -5.484375 6.34375 -4.984375 C 6.5625 -4.492188 6.671875 -3.910156 6.671875 -3.234375 Z M 1.96875 -3.234375 C 1.96875 -2.785156 2.019531 -2.394531 2.125 -2.0625 C 2.238281 -1.738281 2.414062 -1.488281 2.65625 -1.3125 C 2.90625 -1.144531 3.21875 -1.0625 3.59375 -1.0625 C 3.988281 -1.0625 4.304688 -1.144531 4.546875 -1.3125 C 4.785156 -1.488281 4.957031 -1.738281 5.0625 -2.0625 C 5.175781 -2.394531 5.234375 -2.785156 5.234375 -3.234375 C 5.234375 -3.910156 5.109375 -4.441406 4.859375 -4.828125 C 4.609375 -5.222656 4.191406 -5.421875 3.609375 -5.421875 C 3.222656 -5.421875 2.90625 -5.332031 2.65625 -5.15625 C 2.414062 -4.976562 2.238281 -4.726562 2.125 -4.40625 C 2.019531 -4.082031 1.96875 -3.691406 1.96875 -3.234375 Z M 1.96875 -3.234375 "/></g></g></g><g fill="#e7e3dd" fill-opacity="1"><g transform="translate(24.522088, 10.422592)"><g><path d="M 3.546875 0 L 2 -5.0625 L 1.953125 -5.0625 C 1.960938 -4.945312 1.972656 -4.765625 1.984375 -4.515625 C 1.992188 -4.273438 2.003906 -4.015625 2.015625 -3.734375 C 2.023438 -3.460938 2.03125 -3.21875 2.03125 -3 L 2.03125 0 L 0.8125 0 L 0.8125 -6.453125 L 2.671875 -6.453125 L 4.203125 -1.515625 L 4.234375 -1.515625 L 5.859375 -6.453125 L 7.71875 -6.453125 L 7.71875 0 L 6.4375 0 L 6.4375 -3.0625 C 6.4375 -3.257812 6.441406 -3.488281 6.453125 -3.75 C 6.460938 -4.019531 6.472656 -4.273438 6.484375 -4.515625 C 6.492188 -4.753906 6.5 -4.9375 6.5 -5.0625 L 6.46875 -5.0625 L 4.796875 0 Z M 3.546875 0 "/></g></g></g><g fill="#e7e3dd" fill-opacity="1"><g transform="translate(32.597081, 10.422592)"><g><path d="M 4.53125 0 L 0.8125 0 L 0.8125 -6.453125 L 4.53125 -6.453125 L 4.53125 -5.34375 L 2.1875 -5.34375 L 2.1875 -3.921875 L 4.375 -3.921875 L 4.375 -2.796875 L 2.1875 -2.796875 L 2.1875 -1.125 L 4.53125 -1.125 Z M 4.53125 0 "/></g></g></g><g fill="#e7e3dd" fill-opacity="1"><g transform="translate(37.206093, 10.422592)"><g><path d="M 6.171875 -3.296875 C 6.171875 -2.566406 6.03125 -1.957031 5.75 -1.46875 C 5.476562 -0.976562 5.078125 -0.609375 4.546875 -0.359375 C 4.015625 -0.117188 3.378906 0 2.640625 0 L 0.8125 0 L 0.8125 -6.453125 L 2.84375 -6.453125 C 3.519531 -6.453125 4.101562 -6.332031 4.59375 -6.09375 C 5.09375 -5.851562 5.476562 -5.5 5.75 -5.03125 C 6.03125 -4.5625 6.171875 -3.984375 6.171875 -3.296875 Z M 4.75 -3.25 C 4.75 -3.726562 4.675781 -4.117188 4.53125 -4.421875 C 4.394531 -4.734375 4.191406 -4.960938 3.921875 -5.109375 C 3.648438 -5.265625 3.3125 -5.34375 2.90625 -5.34375 L 2.1875 -5.34375 L 2.1875 -1.125 L 2.765625 -1.125 C 3.429688 -1.125 3.925781 -1.300781 4.25 -1.65625 C 4.582031 -2.019531 4.75 -2.550781 4.75 -3.25 Z M 4.75 -3.25 "/></g></g></g><g fill="#e7e3dd" fill-opacity="1"><g transform="translate(43.446415, 10.422592)"><g><path d="M 6.671875 -3.234375 C 6.671875 -2.734375 6.609375 -2.28125 6.484375 -1.875 C 6.359375 -1.46875 6.171875 -1.117188 5.921875 -0.828125 C 5.671875 -0.535156 5.351562 -0.304688 4.96875 -0.140625 C 4.582031 0.015625 4.125 0.09375 3.59375 0.09375 C 3.070312 0.09375 2.617188 0.015625 2.234375 -0.140625 C 1.847656 -0.304688 1.523438 -0.535156 1.265625 -0.828125 C 1.015625 -1.117188 0.828125 -1.46875 0.703125 -1.875 C 0.585938 -2.289062 0.53125 -2.75 0.53125 -3.25 C 0.53125 -3.914062 0.640625 -4.492188 0.859375 -4.984375 C 1.078125 -5.484375 1.410156 -5.867188 1.859375 -6.140625 C 2.316406 -6.421875 2.898438 -6.5625 3.609375 -6.5625 C 4.304688 -6.5625 4.878906 -6.421875 5.328125 -6.140625 C 5.785156 -5.867188 6.125 -5.484375 6.34375 -4.984375 C 6.5625 -4.492188 6.671875 -3.910156 6.671875 -3.234375 Z M 1.96875 -3.234375 C 1.96875 -2.785156 2.019531 -2.394531 2.125 -2.0625 C 2.238281 -1.738281 2.414062 -1.488281 2.65625 -1.3125 C 2.90625 -1.144531 3.21875 -1.0625 3.59375 -1.0625 C 3.988281 -1.0625 4.304688 -1.144531 4.546875 -1.3125 C 4.785156 -1.488281 4.957031 -1.738281 5.0625 -2.0625 C 5.175781 -2.394531 5.234375 -2.785156 5.234375 -3.234375 C 5.234375 -3.910156 5.109375 -4.441406 4.859375 -4.828125 C 4.609375 -5.222656 4.191406 -5.421875 3.609375 -5.421875 C 3.222656 -5.421875 2.90625 -5.332031 2.65625 -5.15625 C 2.414062 -4.976562 2.238281 -4.726562 2.125 -4.40625 C 2.019531 -4.082031 1.96875 -3.691406 1.96875 -3.234375 Z M 1.96875 -3.234375 "/></g></g></g><g fill="#e7e3dd" fill-opacity="1"><g transform="translate(50.190719, 10.422592)"><g><path d="M 6.546875 0 L 4.796875 0 L 2 -4.890625 L 1.953125 -4.890625 C 1.960938 -4.679688 1.972656 -4.472656 1.984375 -4.265625 C 1.992188 -4.066406 2 -3.863281 2 -3.65625 C 2.007812 -3.445312 2.019531 -3.242188 2.03125 -3.046875 L 2.03125 0 L 0.8125 0 L 0.8125 -6.453125 L 2.546875 -6.453125 L 5.34375 -1.625 L 5.375 -1.625 C 5.363281 -1.820312 5.351562 -2.019531 5.34375 -2.21875 C 5.34375 -2.414062 5.335938 -2.613281 5.328125 -2.8125 C 5.316406 -3.007812 5.3125 -3.207031 5.3125 -3.40625 L 5.3125 -6.453125 L 6.546875 -6.453125 Z M 6.546875 0 "/></g></g></g></g></g></svg>